<?xml version="1.0" encoding="UTF-8" standalone="no"?>
<svg
   xmlns:dc="http://purl.org/dc/elements/1.1/"
   xmlns:cc="http://creativecommons.org/ns#"
   xmlns:rdf="http://www.w3.org/1999/02/22-rdf-syntax-ns#"
   xmlns:svg="http://www.w3.org/2000/svg"
   xmlns="http://www.w3.org/2000/svg"
   xmlns:sodipodi="http://sodipodi.sourceforge.net/DTD/sodipodi-0.dtd"
   xmlns:inkscape="http://www.inkscape.org/namespaces/inkscape"
   height="1000"
   width="571.429"
   id="svg2"
   version="1.1"
   inkscape:version="0.91 r13725"
   sodipodi:docname="stopsort-512px.svg">
  <metadata
     id="metadata10">
    <rdf:RDF>
      <cc:Work
         rdf:about="">
        <dc:format>image/svg+xml</dc:format>
        <dc:type
           rdf:resource="http://purl.org/dc/dcmitype/StillImage" />
        <dc:title></dc:title>
      </cc:Work>
    </rdf:RDF>
  </metadata>
  <defs
     id="defs8" />
  <sodipodi:namedview
     pagecolor="#ffffff"
     bordercolor="#666666"
     borderopacity="1"
     objecttolerance="10"
     gridtolerance="10"
     guidetolerance="10"
     inkscape:pageopacity="0"
     inkscape:pageshadow="2"
     inkscape:window-width="1920"
     inkscape:window-height="1015"
     id="namedview6"
     showgrid="false"
     inkscape:zoom="0.236"
     inkscape:cx="-231.23464"
     inkscape:cy="500"
     inkscape:window-x="-4"
     inkscape:window-y="-4"
     inkscape:window-maximized="1"
     inkscape:current-layer="svg2" />
  <path
     d="M571.392 607.168q0 14.508 -10.602 25.11l-249.984 249.984q-10.602 10.602 -25.11 10.602t-25.11 -10.602l-249.984 -249.984q-10.602 -10.602 -10.602 -25.11t10.602 -25.11 25.11 -10.602h499.968q14.508 0 25.11 10.602t10.602 25.11zm0 -214.272q0 14.508 -10.602 25.11t-25.11 10.602h-499.968q-14.508 0 -25.11 -10.602t-10.602 -25.11 10.602 -25.11l249.984 -249.984q10.602 -10.602 25.11 -10.602t25.11 10.602l249.984 249.984q10.602 10.602 10.602 25.11z"
     fill="#000000"
     id="path4" />
  <path
     style="opacity:1;fill:#ff2d19;fill-opacity:1;stroke:#000000;stroke-width:3.54330707;stroke-linecap:round;stroke-linejoin:round;stroke-miterlimit:4;stroke-dasharray:none;stroke-opacity:1"
     id="path4148"
     d="m 504.17269,212.36091 c -11.98236,22.61211 -25.60451,46.65149 -34.94122,70.61842 -11.71617,30.07489 -8.97016,31.42704 -17.44712,59.97385 -19.99685,67.34093 4.00004,-23.37552 -14.56538,48.98182 -7.2232,32.75916 -19.51005,63.62897 -36.53017,92.50063 -4.77446,8.09903 -10.29285,15.73793 -15.25047,23.72615 -4.41519,7.11419 -8.57599,14.38313 -12.86399,21.57469 -4.58008,7.6383 -9.52845,15.06751 -13.74024,22.91491 -5.39367,10.04948 -17.46519,37.61309 -22.53249,47.94417 -10.25341,20.90436 -21.09027,41.53045 -32.86214,61.60842 -4.03513,5.60304 -7.95216,11.29305 -12.10538,16.80913 -17.87779,23.74434 -17.59189,21.27375 -34.76196,46.40581 -10.98242,16.07512 -20.30156,32.40341 -29.10359,49.67012 -2.50251,2.9132 -3.44555,6.74612 -5.55341,9.88208 -12.38859,18.43108 -25.65847,36.39749 -38.6317,54.42797 -2.02694,3.13383 -4.05389,6.26766 -6.08083,9.40149 0,0 -105.766463,-5.92347 -105.766463,-5.92347 l 0,0 c 2.040428,-3.36141 4.080855,-6.72282 6.121283,-10.08423 6.227616,-8.64337 12.692844,-17.11876 18.725609,-25.89923 3.576035,-5.20479 6.584781,-10.80009 10.373461,-15.85219 2.8276,-3.77052 6.71295,-6.6857 9.4209,-10.54304 1.34884,-1.92136 1.72051,-4.36851 2.58076,-6.55276 0.99779,-1.26507 1.99558,-2.53015 2.99337,-3.79522 3.75541,-7.55269 10.10367,-20.52355 13.88897,-26.96786 18.07824,-30.77741 40.17532,-58.64863 62.12074,-86.68785 17.74339,-29.04128 4.62211,-6.38638 21.20872,-38.66682 3.76455,-7.32647 7.94291,-14.43863 11.59884,-21.8199 7.99372,-16.13923 14.19868,-33.14593 22.588,-49.08311 4.13752,-7.86004 9.15728,-15.22304 13.73592,-22.83456 17.512,-29.96304 8.1781,-14.96341 28.09582,-44.94016 16.98041,-27.95422 29.49308,-57.80462 36.43064,-89.83517 18.60764,-74.84584 -5.10778,16.83668 14.56597,-49.00547 9.22675,-30.87919 4.92948,-28.72299 17.51051,-61.84819 9.47883,-24.95727 22.53623,-47.81506 34.97403,-71.33073 0,0 105.80301,5.2303 105.80301,5.2303 z"
     inkscape:connector-curvature="0" />
  <path
     style="opacity:1;fill:#ff2d19;fill-opacity:1;stroke:#000000;stroke-width:3.54330707;stroke-linecap:round;stroke-linejoin:round;stroke-miterlimit:4;stroke-dasharray:none;stroke-opacity:1"
     id="path4150"
     d="m 137.62033,225.70093 c 13.41344,18.28567 26.88778,36.52683 40.24033,54.85701 14.89203,20.44355 30.13833,40.63922 44.49297,61.4636 50.14933,72.75196 94.97184,149.04103 140.91456,224.46744 8.03501,13.80482 15.61391,27.8854 24.10501,41.41447 9.25752,14.75023 19.48274,28.87092 29.11365,43.38011 15.46693,21.49655 28.36318,44.65052 42.91021,66.73797 11.91434,18.09011 35.46231,51.50701 48.11845,69.60211 4.40938,7.37434 8.77851,14.77289 13.22812,22.12302 0.0708,0.11701 6.33543,8.98303 6.99384,12.33096 0.39309,1.99879 0.14414,4.08978 0.54627,6.08677 1.32863,6.59802 2.20535,6.8118 5.79896,12.49665 1.655,2.47587 3.31,4.95174 4.965,7.4276 0,0 -105.76191,6.00426 -105.76191,6.00426 l 0,0 c -1.66917,-2.7435 -3.33835,-5.48701 -5.00752,-8.23051 -1.30325,-2.80228 -2.86529,-5.49817 -3.90976,-8.40684 -1.2293,-3.42344 -1.21509,-7.21329 -2.45688,-10.63222 -3.54322,-9.75521 -20.56768,-24.1347 -20.13159,-32.74676 C 385.83767,771.20475 368.92465,747.2571 353.6326,723.98059 346.97061,713.84016 340.75154,703.4147 334.17283,693.22005 316.91143,666.47102 298.45584,640.49421 281.58866,613.49486 273.15746,599.999 265.5259,586.01976 257.49452,572.28221 226.62032,521.60931 196.41421,470.35616 164.2854,420.46752 120.06515,351.80367 118.1593,350.61803 72.139335,287.23867 58.739651,268.78443 45.293911,250.36368 31.871199,231.92619 c 0,0 105.749131,-6.22526 105.749131,-6.22526 z"
     inkscape:connector-curvature="0" />
</svg>
